# Blender 4.0.2
# www.blender.org
mtllib Pro.mtl
o Cylinder
v -0.000000 2.720000 -2.720000
v 0.000000 2.184126 2.720000
v 0.530646 2.667736 -2.720000
v 0.426102 2.142159 2.720000
v 1.040899 2.512952 -2.720000
v 0.835829 2.017869 2.720000
v 1.511151 2.261597 -2.720000
v 1.213435 1.816034 2.720000
v 1.923330 1.923330 -2.720000
v 1.544410 1.544410 2.720000
v 2.261597 1.511151 -2.720000
v 1.816034 1.213436 2.720000
v 2.512952 1.040899 -2.720000
v 2.017869 0.835829 2.720000
v 2.667736 0.530645 -2.720000
v 2.142159 0.426102 2.720000
v 2.720000 -0.000000 -2.720000
v 2.184126 0.000000 2.720000
v 2.667736 -0.530646 -2.720000
v 2.142159 -0.426102 2.720000
v 2.512952 -1.040899 -2.720000
v 2.017869 -0.835829 2.720000
v 2.261597 -1.511151 -2.720000
v 1.816034 -1.213435 2.720000
v 1.923330 -1.923331 -2.720000
v 1.544410 -1.544410 2.720000
v 1.511151 -2.261598 -2.720000
v 1.213435 -1.816034 2.720000
v 1.040899 -2.512953 -2.720000
v 0.835829 -2.017869 2.720000
v 0.530646 -2.667736 -2.720000
v 0.426102 -2.142158 2.720000
v -0.000000 -2.720000 -2.720000
v 0.000000 -2.184126 2.720000
v -0.530646 -2.667736 -2.720000
v -0.426102 -2.142158 2.720000
v -1.040899 -2.512953 -2.720000
v -0.835829 -2.017869 2.720000
v -1.511151 -2.261598 -2.720000
v -1.213435 -1.816034 2.720000
v -1.923330 -1.923331 -2.720000
v -1.544410 -1.544410 2.720000
v -2.261597 -1.511151 -2.720000
v -1.816034 -1.213435 2.720000
v -2.512952 -1.040899 -2.720000
v -2.017869 -0.835829 2.720000
v -2.667736 -0.530646 -2.720000
v -2.142159 -0.426102 2.720000
v -2.720000 -0.000000 -2.720000
v -2.184126 0.000000 2.720000
v -2.667736 0.530645 -2.720000
v -2.142159 0.426102 2.720000
v -2.512952 1.040899 -2.720000
v -2.017869 0.835829 2.720000
v -2.261597 1.511151 -2.720000
v -1.816034 1.213436 2.720000
v -1.923330 1.923330 -2.720000
v -1.544410 1.544410 2.720000
v -1.511151 2.261597 -2.720000
v -1.213435 1.816034 2.720000
v -1.040899 2.512952 -2.720000
v -0.835829 2.017869 2.720000
v -0.530646 2.667736 -2.720000
v -0.426102 2.142159 2.720000
v 0.530646 2.667736 2.720000
v 0.000000 2.720000 2.720000
v 1.040899 2.512953 2.720000
v 1.511151 2.261598 2.720000
v 1.923330 1.923331 2.720000
v 2.261597 1.511151 2.720000
v 2.512952 1.040899 2.720000
v 2.667736 0.530646 2.720000
v 2.720000 0.000000 2.720000
v 2.667736 -0.530645 2.720000
v 2.512952 -1.040899 2.720000
v 2.261597 -1.511151 2.720000
v 1.923330 -1.923330 2.720000
v 1.511151 -2.261597 2.720000
v 1.040899 -2.512952 2.720000
v 0.530646 -2.667736 2.720000
v 0.000000 -2.720000 2.720000
v -0.530646 -2.667736 2.720000
v -1.040899 -2.512952 2.720000
v -1.511151 -2.261597 2.720000
v -1.923330 -1.923330 2.720000
v -2.261597 -1.511151 2.720000
v -2.512952 -1.040899 2.720000
v -2.667736 -0.530645 2.720000
v -2.720000 0.000000 2.720000
v -2.667736 0.530646 2.720000
v -2.512952 1.040899 2.720000
v -2.261597 1.511151 2.720000
v -1.923330 1.923331 2.720000
v -1.511151 2.261598 2.720000
v -1.040899 2.512953 2.720000
v -0.530646 2.667736 2.720000
v 0.426102 2.142159 -1.515600
v 0.000000 2.184126 -1.515600
v 0.835829 2.017869 -1.515600
v 1.213435 1.816034 -1.515600
v 1.544410 1.544410 -1.515600
v 1.816034 1.213435 -1.515600
v 2.017869 0.835829 -1.515600
v 2.142159 0.426102 -1.515600
v 2.184126 0.000000 -1.515600
v 2.142159 -0.426102 -1.515600
v 2.017869 -0.835829 -1.515600
v 1.816034 -1.213435 -1.515600
v 1.544410 -1.544410 -1.515600
v 1.213435 -1.816034 -1.515600
v 0.835829 -2.017869 -1.515600
v 0.426102 -2.142158 -1.515600
v 0.000000 -2.184126 -1.515600
v -0.426102 -2.142158 -1.515600
v -0.835829 -2.017869 -1.515600
v -1.213435 -1.816034 -1.515600
v -1.544410 -1.544410 -1.515600
v -1.816034 -1.213435 -1.515600
v -2.017869 -0.835829 -1.515600
v -2.142159 -0.426102 -1.515600
v -2.184126 0.000000 -1.515600
v -2.142159 0.426102 -1.515600
v -2.017869 0.835829 -1.515600
v -1.816034 1.213435 -1.515600
v -1.544410 1.544410 -1.515600
v -1.213435 1.816034 -1.515600
v -0.835829 2.017869 -1.515600
v -0.426102 2.142159 -1.515600
vn 0.0980 0.9952 -0.0000
vn 0.2903 0.9569 -0.0000
vn 0.4714 0.8819 -0.0000
vn 0.6344 0.7730 -0.0000
vn 0.7730 0.6344 -0.0000
vn 0.8819 0.4714 -0.0000
vn 0.9569 0.2903 -0.0000
vn 0.9952 0.0980 -0.0000
vn 0.9952 -0.0980 -0.0000
vn 0.9569 -0.2903 -0.0000
vn 0.8819 -0.4714 -0.0000
vn 0.7730 -0.6344 -0.0000
vn 0.6344 -0.7730 -0.0000
vn 0.4714 -0.8819 -0.0000
vn 0.2903 -0.9569 -0.0000
vn 0.0980 -0.9952 -0.0000
vn -0.0980 -0.9952 -0.0000
vn -0.2903 -0.9569 -0.0000
vn -0.4714 -0.8819 -0.0000
vn -0.6344 -0.7730 -0.0000
vn -0.7730 -0.6344 -0.0000
vn -0.8819 -0.4714 -0.0000
vn -0.9569 -0.2903 -0.0000
vn -0.9952 -0.0980 -0.0000
vn -0.9952 0.0980 -0.0000
vn -0.9569 0.2903 -0.0000
vn -0.8819 0.4714 -0.0000
vn -0.7730 0.6344 -0.0000
vn -0.6344 0.7730 -0.0000
vn -0.4714 0.8819 -0.0000
vn -0.2903 0.9569 -0.0000
vn -0.0980 0.9952 -0.0000
vn -0.0000 -0.0000 -1.0000
vn -0.0000 -0.0000 1.0000
vt 1.000000 0.500000
vt 1.000000 1.000000
vt 0.968750 1.000000
vt 0.968750 0.500000
vt 0.937500 1.000000
vt 0.937500 0.500000
vt 0.906250 1.000000
vt 0.906250 0.500000
vt 0.875000 1.000000
vt 0.875000 0.500000
vt 0.843750 1.000000
vt 0.843750 0.500000
vt 0.812500 1.000000
vt 0.812500 0.500000
vt 0.781250 1.000000
vt 0.781250 0.500000
vt 0.750000 1.000000
vt 0.750000 0.500000
vt 0.718750 1.000000
vt 0.718750 0.500000
vt 0.687500 1.000000
vt 0.687500 0.500000
vt 0.656250 1.000000
vt 0.656250 0.500000
vt 0.625000 1.000000
vt 0.625000 0.500000
vt 0.593750 1.000000
vt 0.593750 0.500000
vt 0.562500 1.000000
vt 0.562500 0.500000
vt 0.531250 1.000000
vt 0.531250 0.500000
vt 0.500000 1.000000
vt 0.500000 0.500000
vt 0.468750 1.000000
vt 0.468750 0.500000
vt 0.437500 1.000000
vt 0.437500 0.500000
vt 0.406250 1.000000
vt 0.406250 0.500000
vt 0.375000 1.000000
vt 0.375000 0.500000
vt 0.343750 1.000000
vt 0.343750 0.500000
vt 0.312500 1.000000
vt 0.312500 0.500000
vt 0.281250 1.000000
vt 0.281250 0.500000
vt 0.250000 1.000000
vt 0.250000 0.500000
vt 0.218750 1.000000
vt 0.218750 0.500000
vt 0.187500 1.000000
vt 0.187500 0.500000
vt 0.156250 1.000000
vt 0.156250 0.500000
vt 0.125000 1.000000
vt 0.125000 0.500000
vt 0.093750 1.000000
vt 0.093750 0.500000
vt 0.062500 1.000000
vt 0.062500 0.500000
vt 0.060986 0.287597
vt 0.057283 0.250000
vt 0.031250 1.000000
vt 0.031250 0.500000
vt 0.000000 1.000000
vt 0.000000 0.500000
vt 0.750000 0.490000
vt 0.796822 0.485388
vt 0.841844 0.471731
vt 0.883337 0.449553
vt 0.919706 0.419706
vt 0.949553 0.383337
vt 0.971731 0.341844
vt 0.985388 0.296822
vt 0.990000 0.250000
vt 0.985388 0.203178
vt 0.971731 0.158156
vt 0.949553 0.116663
vt 0.919706 0.080294
vt 0.883337 0.050447
vt 0.841844 0.028269
vt 0.796822 0.014612
vt 0.750000 0.010000
vt 0.703178 0.014612
vt 0.658156 0.028269
vt 0.616663 0.050447
vt 0.580294 0.080294
vt 0.550447 0.116663
vt 0.528269 0.158156
vt 0.514612 0.203178
vt 0.510000 0.250000
vt 0.514612 0.296822
vt 0.528269 0.341844
vt 0.550447 0.383337
vt 0.580294 0.419706
vt 0.616663 0.449553
vt 0.658156 0.471731
vt 0.703178 0.485388
vt 0.250000 0.442717
vt 0.287597 0.439014
vt 0.296822 0.485388
vt 0.250000 0.490000
vt 0.323750 0.428047
vt 0.341844 0.471731
vt 0.357068 0.410238
vt 0.383337 0.449553
vt 0.386272 0.386272
vt 0.419706 0.419706
vt 0.410238 0.357068
vt 0.449553 0.383337
vt 0.428047 0.323750
vt 0.471731 0.341844
vt 0.439014 0.287597
vt 0.485388 0.296822
vt 0.442717 0.250000
vt 0.490000 0.250000
vt 0.439014 0.212403
vt 0.485388 0.203178
vt 0.428047 0.176250
vt 0.471731 0.158156
vt 0.410238 0.142932
vt 0.449553 0.116663
vt 0.386271 0.113729
vt 0.419706 0.080294
vt 0.357068 0.089762
vt 0.383337 0.050447
vt 0.323750 0.071953
vt 0.341844 0.028269
vt 0.287597 0.060986
vt 0.296822 0.014612
vt 0.250000 0.057283
vt 0.250000 0.010000
vt 0.212403 0.060986
vt 0.203178 0.014612
vt 0.176250 0.071953
vt 0.158156 0.028269
vt 0.142932 0.089762
vt 0.116663 0.050447
vt 0.113729 0.113729
vt 0.080294 0.080294
vt 0.089762 0.142932
vt 0.050447 0.116663
vt 0.071953 0.176250
vt 0.028269 0.158156
vt 0.060986 0.212403
vt 0.014612 0.203178
vt 0.010000 0.250000
vt 0.014612 0.296822
vt 0.071953 0.323750
vt 0.028269 0.341844
vt 0.089762 0.357068
vt 0.050447 0.383337
vt 0.113729 0.386271
vt 0.080294 0.419706
vt 0.142932 0.410238
vt 0.116663 0.449553
vt 0.176250 0.428047
vt 0.158156 0.471731
vt 0.212403 0.439014
vt 0.203178 0.485388
s 0
f 1/1/1 66/2/1 65/3/1 3/4/1
f 3/4/2 65/3/2 67/5/2 5/6/2
f 5/6/3 67/5/3 68/7/3 7/8/3
f 7/8/4 68/7/4 69/9/4 9/10/4
f 9/10/5 69/9/5 70/11/5 11/12/5
f 11/12/6 70/11/6 71/13/6 13/14/6
f 13/14/7 71/13/7 72/15/7 15/16/7
f 15/16/8 72/15/8 73/17/8 17/18/8
f 17/18/9 73/17/9 74/19/9 19/20/9
f 19/20/10 74/19/10 75/21/10 21/22/10
f 21/22/11 75/21/11 76/23/11 23/24/11
f 23/24/12 76/23/12 77/25/12 25/26/12
f 25/26/13 77/25/13 78/27/13 27/28/13
f 27/28/14 78/27/14 79/29/14 29/30/14
f 29/30/15 79/29/15 80/31/15 31/32/15
f 31/32/16 80/31/16 81/33/16 33/34/16
f 33/34/17 81/33/17 82/35/17 35/36/17
f 35/36/18 82/35/18 83/37/18 37/38/18
f 37/38/19 83/37/19 84/39/19 39/40/19
f 39/40/20 84/39/20 85/41/20 41/42/20
f 41/42/21 85/41/21 86/43/21 43/44/21
f 43/44/22 86/43/22 87/45/22 45/46/22
f 45/46/23 87/45/23 88/47/23 47/48/23
f 47/48/24 88/47/24 89/49/24 49/50/24
f 49/50/25 89/49/25 90/51/25 51/52/25
f 51/52/26 90/51/26 91/53/26 53/54/26
f 53/54/27 91/53/27 92/55/27 55/56/27
f 55/56/28 92/55/28 93/57/28 57/58/28
f 57/58/29 93/57/29 94/59/29 59/60/29
f 59/60/30 94/59/30 95/61/30 61/62/30
f 52/63/9 50/64/9 121/64/9 122/63/9
f 61/62/31 95/61/31 96/65/31 63/66/31
f 63/66/32 96/65/32 66/67/32 1/68/32
f 1/69/33 3/70/33 5/71/33 7/72/33 9/73/33 11/74/33 13/75/33 15/76/33 17/77/33 19/78/33 21/79/33 23/80/33 25/81/33 27/82/33 29/83/33 31/84/33 33/85/33 35/86/33 37/87/33 39/88/33 41/89/33 43/90/33 45/91/33 47/92/33 49/93/33 51/94/33 53/95/33 55/96/33 57/97/33 59/98/33 61/99/33 63/100/33
f 2/101/34 4/102/34 65/103/34 66/104/34
f 4/102/34 6/105/34 67/106/34 65/103/34
f 6/105/34 8/107/34 68/108/34 67/106/34
f 8/107/34 10/109/34 69/110/34 68/108/34
f 10/109/34 12/111/34 70/112/34 69/110/34
f 12/111/34 14/113/34 71/114/34 70/112/34
f 14/113/34 16/115/34 72/116/34 71/114/34
f 16/115/34 18/117/34 73/118/34 72/116/34
f 18/117/34 20/119/34 74/120/34 73/118/34
f 20/119/34 22/121/34 75/122/34 74/120/34
f 22/121/34 24/123/34 76/124/34 75/122/34
f 24/123/34 26/125/34 77/126/34 76/124/34
f 26/125/34 28/127/34 78/128/34 77/126/34
f 28/127/34 30/129/34 79/130/34 78/128/34
f 30/129/34 32/131/34 80/132/34 79/130/34
f 32/131/34 34/133/34 81/134/34 80/132/34
f 34/133/34 36/135/34 82/136/34 81/134/34
f 36/135/34 38/137/34 83/138/34 82/136/34
f 38/137/34 40/139/34 84/140/34 83/138/34
f 40/139/34 42/141/34 85/142/34 84/140/34
f 42/141/34 44/143/34 86/144/34 85/142/34
f 44/143/34 46/145/34 87/146/34 86/144/34
f 46/145/34 48/147/34 88/148/34 87/146/34
f 48/147/34 50/64/34 89/149/34 88/148/34
f 50/64/34 52/63/34 90/150/34 89/149/34
f 52/63/34 54/151/34 91/152/34 90/150/34
f 54/151/34 56/153/34 92/154/34 91/152/34
f 56/153/34 58/155/34 93/156/34 92/154/34
f 58/155/34 60/157/34 94/158/34 93/156/34
f 60/157/34 62/159/34 95/160/34 94/158/34
f 62/159/34 64/161/34 96/162/34 95/160/34
f 64/161/34 2/101/34 66/104/34 96/162/34
f 97/102/34 98/101/34 128/161/34 127/159/34 126/157/34 125/155/34 124/153/34 123/151/34 122/63/34 121/64/34 120/147/34 119/145/34 118/143/34 117/141/34 116/139/34 115/137/34 114/135/34 113/133/34 112/131/34 111/129/34 110/127/34 109/125/34 108/123/34 107/121/34 106/119/34 105/117/34 104/115/34 103/113/34 102/111/34 101/109/34 100/107/34 99/105/34
f 26/125/28 24/123/28 108/123/28 109/125/28
f 54/151/10 52/63/10 122/63/10 123/151/10
f 28/127/29 26/125/29 109/125/29 110/127/29
f 56/153/11 54/151/11 123/151/11 124/153/11
f 30/129/30 28/127/30 110/127/30 111/129/30
f 4/102/17 2/101/17 98/101/17 97/102/17
f 58/155/12 56/153/12 124/153/12 125/155/12
f 32/131/31 30/129/31 111/129/31 112/131/31
f 6/105/18 4/102/18 97/102/18 99/105/18
f 60/157/13 58/155/13 125/155/13 126/157/13
f 34/133/32 32/131/32 112/131/32 113/133/32
f 8/107/19 6/105/19 99/105/19 100/107/19
f 62/159/14 60/157/14 126/157/14 127/159/14
f 36/135/1 34/133/1 113/133/1 114/135/1
f 10/109/20 8/107/20 100/107/20 101/109/20
f 64/161/15 62/159/15 127/159/15 128/161/15
f 38/137/2 36/135/2 114/135/2 115/137/2
f 12/111/21 10/109/21 101/109/21 102/111/21
f 2/101/16 64/161/16 128/161/16 98/101/16
f 40/139/3 38/137/3 115/137/3 116/139/3
f 14/113/22 12/111/22 102/111/22 103/113/22
f 42/141/4 40/139/4 116/139/4 117/141/4
f 16/115/23 14/113/23 103/113/23 104/115/23
f 44/143/5 42/141/5 117/141/5 118/143/5
f 18/117/24 16/115/24 104/115/24 105/117/24
f 46/145/6 44/143/6 118/143/6 119/145/6
f 20/119/25 18/117/25 105/117/25 106/119/25
f 48/147/7 46/145/7 119/145/7 120/147/7
f 22/121/26 20/119/26 106/119/26 107/121/26
f 50/64/8 48/147/8 120/147/8 121/64/8
f 24/123/27 22/121/27 107/121/27 108/123/27
